<svg id="Layer_1" data-name="Layer 1" xmlns="http://www.w3.org/2000/svg" viewBox="0 0 2856.83 947.28"><defs><style>.cls-1{fill:#365480;}.cls-2{fill:#7fd2eb;}.cls-3{fill:#6a85c3;}.cls-4{fill:#ffe600;}.cls-5,.cls-6,.cls-7{fill:none;}.cls-6,.cls-7{stroke:#fff;stroke-miterlimit:10;}.cls-6{stroke-width:50px;}.cls-7{stroke-width:40px;}</style></defs><title>Untitled-1</title><polygon class="cls-1" points="698.69 656.47 885.42 6.94 1158.73 7.17 972 656.7 698.69 656.47"/><polygon class="cls-1" points="351.43 656.19 538.16 6.66 811.46 6.88 624.73 656.41 351.43 656.19"/><polygon class="cls-1" points="0 656.3 186.73 6.77 460.04 7 273.31 656.53 0 656.3"/><polygon class="cls-2" points="373.57 656.22 560.31 6.68 833.61 6.91 646.88 656.44 373.57 656.22"/><path class="cls-3" d="M3049.84,1099.23c-8,22.47-23.17,48.78-30.37,58-33,42.32-37.09,45.9-65,72.2H922.35l186.74-649.54h971.19c26.43-1.12,85.14-.47,161.22,5.29l-81,281.69H2993.3C3020.48,906.45,3080.48,1023.66,3049.84,1099.23Z" transform="translate(-201.51 -573)"/><polygon class="cls-4" points="22.15 656.33 208.88 6.8 482.19 7.03 295.46 656.56 22.15 656.33"/><path class="cls-1" d="M324.74,1510.86a61.88,61.88,0,0,1-25.9-27.45q-8.91-18-8.9-43.41V1302.28h30.27V1441q0,23.6,11.87,36.51t33.54,12.91q21.81,0,33.76-12.91T411.33,1441V1302.28H441.6V1440q0,25.38-8.9,43.41a61.81,61.81,0,0,1-26,27.45q-17.07,9.44-41.11,9.43T324.74,1510.86Z" transform="translate(-201.51 -573)"/><path class="cls-1" d="M489.09,1302.28h30.28v215.78H489.09Zm13.06,157.31L581.4,1364H617L500.22,1495.5Zm35.77-30.42L557.36,1409l67.22,109.08H591.64Z" transform="translate(-201.51 -573)"/><path class="cls-1" d="M649.81,1364h30.28v154H649.81Zm74.65,29.09a36.47,36.47,0,0,0-14.1-2.53q-14.4,0-22.33,7.94t-7.94,22L677,1390.88q7.13-13.8,18.4-21.45a43.52,43.52,0,0,1,24.93-7.64,56.68,56.68,0,0,1,19.07,3,42.87,42.87,0,0,1,14.92,9l-19.74,26.72A25.24,25.24,0,0,0,724.46,1393.11Z" transform="translate(-201.51 -573)"/><path class="cls-1" d="M841.25,1302.28h25.83l79.54,215.78H914L854.16,1344l-59.8,174.08H761.71Zm-42.89,139.65H911.89v28.79H798.36Z" transform="translate(-201.51 -573)"/><path class="cls-1" d="M976.3,1302.28h30.27v215.78H976.3Zm43.93,211.11a40.32,40.32,0,0,1-15.73-19.52l2.07-32.2q0,9.94,3.57,16.91a24.65,24.65,0,0,0,10.31,10.69q6.75,3.7,16.4,3.71,15,0,23.22-9.13t8.24-25.74v-33.4q0-16.9-8.24-26.26t-23.22-9.35q-9.64,0-16.4,3.56a23.9,23.9,0,0,0-10.31,10.46,35.62,35.62,0,0,0-3.57,16.55l-3.11-29.68q7-13.5,18.25-20.85a45,45,0,0,1,25.08-7.35q16.32,0,28,7.35t17.73,21.44q6.09,14.1,6.08,34v33.54q0,19.59-6.23,33.53a46.28,46.28,0,0,1-18.25,21.3q-12,7.35-28.79,7.35Q1030.91,1520.29,1020.23,1513.39Z" transform="translate(-201.51 -573)"/><path class="cls-1" d="M1166.4,1512.42a51.9,51.9,0,0,1-21.74-22.93q-7.48-15.06-7.49-36.28v-25.08q0-20.93,7.49-35.84a51.74,51.74,0,0,1,21.74-22.71q14.25-7.78,34.29-7.79t34.28,7.79a51.74,51.74,0,0,1,21.74,22.71q7.49,14.91,7.49,35.84v25.52q0,21.07-7.49,36a52.12,52.12,0,0,1-21.74,22.78q-14.25,7.88-34.28,7.87T1166.4,1512.42Zm58.85-30.87q8.67-9.93,8.68-27.9v-25.52q0-18-8.68-27.75t-24.56-9.8q-15.89,0-24.57,9.8t-8.68,27.75v25.52q0,18,8.68,27.9t24.57,10Q1216.56,1491.5,1225.25,1481.55Z" transform="translate(-201.51 -573)"/><path class="cls-1" d="M1307.24,1302.28h30.27v215.78h-30.27Zm43.93,211.11a40.32,40.32,0,0,1-15.73-19.52l2.07-32.2q0,9.94,3.57,16.91a24.65,24.65,0,0,0,10.31,10.69q6.75,3.7,16.4,3.71,15,0,23.22-9.13t8.24-25.74v-33.4q0-16.9-8.24-26.26t-23.22-9.35q-9.64,0-16.4,3.56a23.9,23.9,0,0,0-10.31,10.46,35.62,35.62,0,0,0-3.57,16.55L1334.4,1390q7-13.5,18.25-20.85a45,45,0,0,1,25.08-7.35q16.32,0,28,7.35t17.74,21.44q6.07,14.1,6.08,34v33.54q0,19.59-6.23,33.53a46.28,46.28,0,0,1-18.25,21.3q-12,7.35-28.79,7.35Q1361.85,1520.29,1351.17,1513.39Z" transform="translate(-201.51 -573)"/><path class="cls-1" d="M1499.12,1457.66q0,16.18,8.24,25t23.23,8.83q14.84,0,23-7.87t8.16-22.41l2.08,32.21a44.37,44.37,0,0,1-15.44,19.14q-10.68,7.71-26.26,7.72-25.53,0-39.4-16.4t-13.88-46.23V1364h30.27Zm62.63-93.64h30.13v154h-30.13Z" transform="translate(-201.51 -573)"/><path class="cls-1" d="M1678.69,1520.29l-11.94-2.67a93.46,93.46,0,0,1-22.34-8,87.51,87.51,0,0,1-19.14-13.35l18-22.12a101.13,101.13,0,0,0,24.79,14.25,67.21,67.21,0,0,0,24.34,4.75q18,0,26.93-5.57t9-16.69q0-7.42-4.9-11.13a27.63,27.63,0,0,0-12.17-5q-7.28-1.26-20.48-2.3c-.79,0-1.63,0-2.52-.08s-1.73-.12-2.52-.22a9.39,9.39,0,0,1-1.19-.07,9.51,9.51,0,0,0-1.19-.08,119.45,119.45,0,0,1-25.37-4.38,34.38,34.38,0,0,1-17.29-11.94q-6.9-8.76-6.9-25.08t6.67-27.16q6.69-10.83,19.89-16.25t33.09-5.42a114,114,0,0,1,22.93,2.23,102.72,102.72,0,0,1,20.85,6.6,104.11,104.11,0,0,1,19.15,11.06l-18.26,22.11a101.18,101.18,0,0,0-22.78-11.13,69.49,69.49,0,0,0-21.89-3.71q-15.44,0-23.15,5.27t-7.71,15.8q0,6.24,4.37,9.35a25.56,25.56,0,0,0,11.06,4.16q6.67,1,19,1.78a11.09,11.09,0,0,0,1.85.15,14,14,0,0,1,2,.15h.9a3,3,0,0,1,.88.14,131.58,131.58,0,0,1,27.53,4.31,37.06,37.06,0,0,1,19.07,12.91q7.72,9.65,7.72,27.9,0,16.62-7.12,27.53t-21.45,16.4q-14.32,5.49-36,5.49Z" transform="translate(-201.51 -573)"/><path class="cls-4" d="M333.42,1510.86a61.88,61.88,0,0,1-25.9-27.45q-8.91-18-8.9-43.41V1302.28h30.27V1441q0,23.6,11.87,36.51t33.54,12.91q21.82,0,33.76-12.91T420,1441V1302.28h30.27V1440q0,25.38-8.9,43.41a61.75,61.75,0,0,1-26,27.45q-17.07,9.44-41.11,9.43T333.42,1510.86Z" transform="translate(-201.51 -573)"/><path class="cls-4" d="M497.77,1302.28h30.28v215.78H497.77Zm13.06,157.31L590.08,1364H625.7L508.9,1495.5Zm35.77-30.42L566,1409l67.23,109.08H600.32Z" transform="translate(-201.51 -573)"/><path class="cls-4" d="M658.49,1364h30.28v154H658.49Zm74.65,29.09a36.43,36.43,0,0,0-14.1-2.53q-14.4,0-22.33,7.94t-7.94,22l-3.12-29.68q7.13-13.8,18.4-21.45a43.53,43.53,0,0,1,24.94-7.64,56.72,56.72,0,0,1,19.07,3,42.92,42.92,0,0,1,14.91,9l-19.74,26.72A25.24,25.24,0,0,0,733.14,1393.11Z" transform="translate(-201.51 -573)"/><path class="cls-2" d="M849.93,1302.28h25.83l79.54,215.78H922.65L862.84,1344,803,1518.06H770.39Zm-42.88,139.65H920.57v28.79H807.05Z" transform="translate(-201.51 -573)"/><path class="cls-2" d="M985,1302.28h30.27v215.78H985Zm43.93,211.11a40.32,40.32,0,0,1-15.73-19.52l2.07-32.2q0,9.94,3.57,16.91a24.65,24.65,0,0,0,10.31,10.69q6.75,3.7,16.4,3.71,15,0,23.22-9.13t8.24-25.74v-33.4q0-16.9-8.24-26.26t-23.22-9.35q-9.65,0-16.4,3.56a23.9,23.9,0,0,0-10.31,10.46,35.62,35.62,0,0,0-3.57,16.55l-3.11-29.68q7-13.5,18.25-20.85a45,45,0,0,1,25.08-7.35q16.32,0,28,7.35t17.73,21.44q6.09,14.1,6.09,34v33.54q0,19.59-6.24,33.53a46.28,46.28,0,0,1-18.25,21.3q-12,7.35-28.79,7.35Q1039.59,1520.29,1028.91,1513.39Z" transform="translate(-201.51 -573)"/><path class="cls-2" d="M1175.08,1512.42a51.9,51.9,0,0,1-21.74-22.93q-7.48-15.06-7.49-36.28v-25.08q0-20.93,7.49-35.84a51.74,51.74,0,0,1,21.74-22.71q14.25-7.78,34.29-7.79t34.28,7.79a51.69,51.69,0,0,1,21.74,22.71q7.48,14.91,7.49,35.84v25.52q0,21.07-7.49,36a52.06,52.06,0,0,1-21.74,22.78q-14.25,7.88-34.28,7.87T1175.08,1512.42Zm58.85-30.87q8.67-9.93,8.68-27.9v-25.52q0-18-8.68-27.75t-24.56-9.8q-15.88,0-24.56,9.8t-8.69,27.75v25.52q0,18,8.69,27.9t24.56,10Q1225.24,1491.5,1233.93,1481.55Z" transform="translate(-201.51 -573)"/><path class="cls-3" d="M1315.92,1302.28h30.27v215.78h-30.27Zm43.93,211.11a40.32,40.32,0,0,1-15.73-19.52l2.07-32.2q0,9.94,3.57,16.91a24.65,24.65,0,0,0,10.31,10.69q6.75,3.7,16.4,3.71,15,0,23.22-9.13t8.24-25.74v-33.4q0-16.9-8.24-26.26t-23.22-9.35q-9.65,0-16.4,3.56a23.9,23.9,0,0,0-10.31,10.46,35.62,35.62,0,0,0-3.57,16.55l-3.11-29.68q7-13.5,18.25-20.85a45,45,0,0,1,25.08-7.35q16.32,0,28,7.35t17.73,21.44q6.09,14.1,6.08,34v33.54q0,19.59-6.23,33.53a46.28,46.28,0,0,1-18.25,21.3q-12,7.35-28.79,7.35Q1370.53,1520.29,1359.85,1513.39Z" transform="translate(-201.51 -573)"/><path class="cls-3" d="M1507.81,1457.66q0,16.18,8.23,25t23.23,8.83q14.84,0,23-7.87t8.16-22.41l2.08,32.21a44.41,44.41,0,0,1-15.43,19.14q-10.69,7.71-26.27,7.72-25.53,0-39.4-16.4t-13.88-46.23V1364h30.28Zm62.62-93.64h30.13v154h-30.13Z" transform="translate(-201.51 -573)"/><path class="cls-3" d="M1687.37,1520.29l-11.94-2.67a93.46,93.46,0,0,1-22.34-8,87.51,87.51,0,0,1-19.14-13.35l18-22.12a101.5,101.5,0,0,0,24.79,14.25,67.21,67.21,0,0,0,24.34,4.75q18,0,26.93-5.57t9-16.69q0-7.42-4.9-11.13a27.63,27.63,0,0,0-12.17-5q-7.26-1.26-20.48-2.3c-.79,0-1.63,0-2.52-.08s-1.73-.12-2.52-.22a9.5,9.5,0,0,1-1.19-.07,9.51,9.51,0,0,0-1.19-.08,119.45,119.45,0,0,1-25.37-4.38,34.38,34.38,0,0,1-17.29-11.94q-6.9-8.76-6.9-25.08t6.68-27.16q6.67-10.83,19.88-16.25t33.1-5.42A114,114,0,0,1,1725,1364a102.52,102.52,0,0,1,20.85,6.6,104.11,104.11,0,0,1,19.15,11.06l-18.25,22.11a101.59,101.59,0,0,0-22.78-11.13,69.58,69.58,0,0,0-21.89-3.71q-15.45,0-23.16,5.27t-7.71,15.8q0,6.24,4.38,9.35a25.46,25.46,0,0,0,11.05,4.16q6.67,1,19,1.78a11.09,11.09,0,0,0,1.85.15,14.23,14.23,0,0,1,2,.15h.89a3.11,3.11,0,0,1,.89.14,131.69,131.69,0,0,1,27.53,4.31,37.14,37.14,0,0,1,19.07,12.91q7.71,9.65,7.71,27.9,0,16.62-7.12,27.53T1737,1514.8q-14.31,5.49-36,5.49Z" transform="translate(-201.51 -573)"/><line class="cls-5" x1="373.58" y1="656.45" x2="299.61" y2="656.44"/><path class="cls-2" d="M2993.3,866.89H2160.51l81-281.69c53.19,4,114.86,10.59,179.93,20.78C2636,639.58,2887.47,712.86,2993.3,866.89Z" transform="translate(-201.51 -573)"/><polyline class="cls-6" points="2041.51 6.91 1959 293.89 2815.85 293.89"/><line class="cls-7" x1="2815.85" y1="293.89" x2="2791.79" y2="293.89"/><line class="cls-7" x1="2041.51" y1="6.91" x2="2039.99" y2="12.2"/></svg>