<svg id="Layer_1" data-name="Layer 1" xmlns="http://www.w3.org/2000/svg" viewBox="0 0 2856.83 997.01"><defs><style>.cls-1{fill:#365480;}.cls-2{fill:#7fd2eb;}.cls-3{fill:#6a85c3;}.cls-4{fill:#ffe600;}.cls-5,.cls-6,.cls-7{fill:none;}.cls-6,.cls-7{stroke:#fff;stroke-miterlimit:10;}.cls-6{stroke-width:50px;}.cls-7{stroke-width:40px;}</style></defs><title>logo</title><polygon class="cls-1" points="698.69 656.47 885.42 6.94 1158.73 7.17 972 656.7 698.69 656.47"/><polygon class="cls-1" points="351.43 656.19 538.16 6.66 811.46 6.88 624.73 656.41 351.43 656.19"/><polygon class="cls-1" points="0 656.3 186.73 6.77 460.04 7 273.31 656.53 0 656.3"/><polygon class="cls-2" points="373.57 656.22 560.31 6.68 833.61 6.91 646.88 656.44 373.57 656.22"/><path class="cls-3" d="M3049.84,1099.23c-8,22.47-23.17,48.78-30.37,58-33,42.32-37.09,45.9-65,72.2H922.35l186.74-649.54h971.19c26.43-1.12,85.14-.47,161.22,5.29l-81,281.69H2993.3C3020.48,906.45,3080.48,1023.66,3049.84,1099.23Z" transform="translate(-201.51 -573)"/><polygon class="cls-4" points="22.15 656.33 208.88 6.8 482.19 7.03 295.46 656.56 22.15 656.33"/><path class="cls-1" d="M330.48,1557.61a81.44,81.44,0,0,1-34.09-36.13q-11.72-23.73-11.72-57.13V1283.1h39.85v182.61q0,31.07,15.62,48t44.14,17q28.71,0,44.44-17t15.72-48V1283.1h39.84v181.25q0,33.39-11.71,57.13a81.36,81.36,0,0,1-34.18,36.13Q415.92,1570,384.28,1570,352.84,1570,330.48,1557.61Z" transform="translate(-201.51 -573)"/><path class="cls-1" d="M546.78,1283.1h39.85v284H546.78Zm17.19,207,104.3-125.78h46.87l-153.71,173Zm47.07-40,25.59-26.56,88.47,143.55H681.75Z" transform="translate(-201.51 -573)"/><path class="cls-1" d="M758.31,1364.35h39.84v202.73H758.31Zm98.24,38.28a48.21,48.21,0,0,0-18.55-3.32q-19,0-29.4,10.45t-10.45,29l-4.1-39.06q9.38-18.17,24.22-28.22a57.18,57.18,0,0,1,32.81-10.06,74.38,74.38,0,0,1,25.1,4,56.22,56.22,0,0,1,19.63,11.82l-26,35.15A33.32,33.32,0,0,0,856.55,1402.63Z" transform="translate(-201.51 -573)"/><path class="cls-1" d="M1010.26,1283.1h34l104.68,284h-43L1027.25,1338l-78.71,229.1h-43Zm-56.44,183.79h149.41v37.89H953.82Z" transform="translate(-201.51 -573)"/><path class="cls-1" d="M1188,1283.1h39.84v284H1188Zm57.81,277.83q-14.07-9.08-20.71-25.68l2.74-42.39q0,13.1,4.69,22.27a32.45,32.45,0,0,0,13.57,14.06q8.88,4.89,21.58,4.88,19.72,0,30.57-12t10.84-33.88v-44q0-22.26-10.84-34.57t-30.57-12.3q-12.69,0-21.58,4.68a31.51,31.51,0,0,0-13.57,13.77q-4.69,9.09-4.69,21.78l-4.1-39.06q9.18-17.77,24-27.44a59.15,59.15,0,0,1,33-9.67q21.48,0,36.81,9.67t23.34,28.22q8,18.56,8,44.73v44.14q0,25.77-8.2,44.14t-24,28q-15.82,9.67-37.89,9.67Q1259.86,1570,1245.81,1560.93Z" transform="translate(-201.51 -573)"/><path class="cls-1" d="M1438.19,1559.66a68.25,68.25,0,0,1-28.61-30.18q-9.87-19.82-9.87-47.75v-33q0-27.54,9.87-47.17a68,68,0,0,1,28.61-29.88q18.75-10.25,45.12-10.25t45.11,10.25a68,68,0,0,1,28.62,29.88q9.86,19.64,9.86,47.17v33.6q0,27.73-9.86,47.36a68.53,68.53,0,0,1-28.62,30q-18.75,10.35-45.11,10.35T1438.19,1559.66Zm77.44-40.62q11.43-13.1,11.43-36.72v-33.6q0-23.62-11.43-36.52t-32.32-12.89q-20.91,0-32.33,12.89t-11.42,36.52v33.6q0,23.63,11.42,36.72t32.33,13.08Q1504.21,1532.12,1515.63,1519Z" transform="translate(-201.51 -573)"/><path class="cls-1" d="M1623.54,1283.1h39.85v284h-39.85Zm57.81,277.83q-14.05-9.08-20.7-25.68l2.74-42.39q0,13.1,4.68,22.27a32.53,32.53,0,0,0,13.58,14.06q8.88,4.89,21.58,4.88,19.73,0,30.57-12t10.84-33.88v-44q0-22.26-10.84-34.57t-30.57-12.3q-12.7,0-21.58,4.68a31.59,31.59,0,0,0-13.58,13.77q-4.68,9.09-4.68,21.78l-4.11-39.06q9.18-17.77,24-27.44a59.15,59.15,0,0,1,33-9.67q21.48,0,36.81,9.67t23.34,28.22q8,18.56,8,44.73v44.14q0,25.77-8.2,44.14t-24,28q-15.81,9.67-37.89,9.67Q1695.42,1570,1681.35,1560.93Z" transform="translate(-201.51 -573)"/><path class="cls-1" d="M1876.08,1487.59q0,21.29,10.84,32.91t30.57,11.62q19.53,0,30.27-10.35t10.74-29.49l2.74,42.38a58.37,58.37,0,0,1-20.32,25.2q-14.06,10.16-34.57,10.15-33.58,0-51.85-21.58t-18.26-60.84V1364.35h39.84Zm82.42-123.24h39.65v202.73H1958.5Z" transform="translate(-201.51 -573)"/><path class="cls-1" d="M2112.41,1570l-15.72-3.51a122.35,122.35,0,0,1-29.4-10.55,115.42,115.42,0,0,1-25.19-17.58l23.63-29.1a133.64,133.64,0,0,0,32.62,18.75,88.47,88.47,0,0,0,32,6.25q23.63,0,35.45-7.32t11.81-22q0-9.77-6.44-14.65a36.5,36.5,0,0,0-16-6.54q-9.57-1.65-26.95-3c-1,0-2.15,0-3.32-.09s-2.28-.17-3.32-.3a13.47,13.47,0,0,1-1.56-.09,11.93,11.93,0,0,0-1.57-.1q-19.73-1.56-33.39-5.76a45.36,45.36,0,0,1-22.76-15.73q-9.07-11.52-9.08-33t8.79-35.75q8.79-14.25,26.17-21.38t43.56-7.13a150.12,150.12,0,0,1,30.17,2.93,134.54,134.54,0,0,1,27.44,8.69,136.76,136.76,0,0,1,25.2,14.55l-24,29.1a133.85,133.85,0,0,0-30-14.65,91.47,91.47,0,0,0-28.8-4.88q-20.33,0-30.47,6.93t-10.16,20.8q0,8.2,5.76,12.31a33.69,33.69,0,0,0,14.55,5.47q8.79,1.36,25,2.34a14.88,14.88,0,0,0,2.44.2,18.64,18.64,0,0,1,2.64.19h1.17a3.69,3.69,0,0,1,1.17.2q21.29,1.37,36.23,5.66a48.87,48.87,0,0,1,25.1,17q10.16,12.7,10.16,36.72,0,21.88-9.38,36.23t-28.22,21.59q-18.85,7.21-47.36,7.22Z" transform="translate(-201.51 -573)"/><path class="cls-4" d="M344.26,1557.61a81.42,81.42,0,0,1-34.08-36.13q-11.71-23.73-11.72-57.13V1283.1h39.85v182.61q0,31.07,15.62,48t44.14,17q28.71,0,44.43-17t15.73-48V1283.1h39.84v181.25q0,33.39-11.72,57.13a81.3,81.3,0,0,1-34.18,36.13q-22.46,12.41-54.1,12.4Q366.63,1570,344.26,1557.61Z" transform="translate(-201.51 -573)"/><path class="cls-4" d="M560.57,1283.1h39.85v284H560.57Zm17.19,207,104.3-125.78h46.87l-153.71,173Zm47.07-40,25.59-26.56,88.47,143.55H695.53Z" transform="translate(-201.51 -573)"/><path class="cls-4" d="M772.09,1364.35h39.85v202.73H772.09Zm98.25,38.28a48.26,48.26,0,0,0-18.56-3.32q-18.94,0-29.39,10.45t-10.45,29l-4.1-39.06q9.38-18.17,24.22-28.22a57.18,57.18,0,0,1,32.81-10.06,74.38,74.38,0,0,1,25.1,4,56.18,56.18,0,0,1,19.62,11.82l-26,35.15A33.46,33.46,0,0,0,870.34,1402.63Z" transform="translate(-201.51 -573)"/><path class="cls-2" d="M1024.05,1283.1h34l104.69,284h-43L1041,1338l-78.71,229.1h-43ZM967.6,1466.89H1117v37.89H967.6Z" transform="translate(-201.51 -573)"/><path class="cls-2" d="M1201.78,1283.1h39.85v284h-39.85Zm57.81,277.83q-14.05-9.08-20.7-25.68l2.74-42.39q0,13.1,4.68,22.27a32.53,32.53,0,0,0,13.58,14.06q8.88,4.89,21.58,4.88,19.72,0,30.57-12t10.84-33.88v-44q0-22.26-10.84-34.57t-30.57-12.3q-12.71,0-21.58,4.68a31.59,31.59,0,0,0-13.58,13.77q-4.68,9.09-4.68,21.78l-4.11-39.06q9.18-17.77,24-27.44a59.15,59.15,0,0,1,33-9.67q21.48,0,36.81,9.67t23.34,28.22q8,18.56,8,44.73v44.14q0,25.77-8.2,44.14t-24,28q-15.81,9.67-37.89,9.67Q1273.66,1570,1259.59,1560.93Z" transform="translate(-201.51 -573)"/><path class="cls-2" d="M1452,1559.66a68.32,68.32,0,0,1-28.62-30.18q-9.85-19.82-9.86-47.75v-33q0-27.54,9.86-47.17a68,68,0,0,1,28.62-29.88q18.75-10.25,45.11-10.25t45.12,10.25a68,68,0,0,1,28.62,29.88q9.86,19.64,9.86,47.17v33.6q0,27.73-9.86,47.36a68.53,68.53,0,0,1-28.62,30q-18.75,10.35-45.12,10.35T1452,1559.66Zm77.44-40.62q11.43-13.1,11.42-36.72v-33.6q0-23.62-11.42-36.52t-32.33-12.89q-20.89,0-32.32,12.89t-11.43,36.52v33.6q0,23.63,11.43,36.72t32.32,13.08Q1518,1532.12,1529.42,1519Z" transform="translate(-201.51 -573)"/><path class="cls-3" d="M1637.33,1283.1h39.84v284h-39.84Zm57.81,277.83q-14.06-9.08-20.7-25.68l2.73-42.39q0,13.1,4.69,22.27a32.56,32.56,0,0,0,13.57,14.06q8.89,4.89,21.59,4.88,19.73,0,30.56-12t10.84-33.88v-44q0-22.26-10.84-34.57t-30.56-12.3q-12.7,0-21.59,4.68a31.62,31.62,0,0,0-13.57,13.77q-4.68,9.09-4.69,21.78l-4.1-39.06q9.18-17.77,24-27.44a59.18,59.18,0,0,1,33-9.67q21.48,0,36.82,9.67t23.34,28.22q8,18.56,8,44.73v44.14q0,25.77-8.21,44.14t-24,28q-15.82,9.67-37.89,9.67Q1709.21,1570,1695.14,1560.93Z" transform="translate(-201.51 -573)"/><path class="cls-3" d="M1889.87,1487.59q0,21.29,10.84,32.91t30.56,11.62q19.53,0,30.28-10.35t10.74-29.49l2.73,42.38a58.28,58.28,0,0,1-20.31,25.2q-14.06,10.16-34.57,10.15-33.59,0-51.85-21.58T1850,1487.59V1364.35h39.85Zm82.42-123.24h39.65v202.73h-39.65Z" transform="translate(-201.51 -573)"/><path class="cls-3" d="M2126.2,1570l-15.73-3.51a122.43,122.43,0,0,1-29.39-10.55,115.48,115.48,0,0,1-25.2-17.58l23.64-29.1a133.41,133.41,0,0,0,32.61,18.75,88.56,88.56,0,0,0,32,6.25q23.63,0,35.44-7.32t11.82-22q0-9.77-6.44-14.65a36.5,36.5,0,0,0-16-6.54q-9.57-1.65-26.95-3c-1.05,0-2.15,0-3.32-.09s-2.28-.17-3.32-.3a13.64,13.64,0,0,1-1.57-.09,11.67,11.67,0,0,0-1.56-.1q-19.73-1.56-33.4-5.76a45.33,45.33,0,0,1-22.75-15.73q-9.09-11.52-9.08-33t8.79-35.75q8.79-14.25,26.17-21.38t43.55-7.13a150.15,150.15,0,0,1,30.18,2.93,134.74,134.74,0,0,1,27.44,8.69,136.36,136.36,0,0,1,25.19,14.55l-24,29.1a133.85,133.85,0,0,0-30-14.65,91.48,91.48,0,0,0-28.81-4.88q-20.31,0-30.47,6.93t-10.15,20.8q0,8.2,5.76,12.31a33.69,33.69,0,0,0,14.55,5.47q8.79,1.36,25,2.34a14.79,14.79,0,0,0,2.44.2,18.64,18.64,0,0,1,2.64.19h1.17a3.69,3.69,0,0,1,1.17.2q21.29,1.37,36.23,5.66a48.91,48.91,0,0,1,25.1,17q10.16,12.7,10.16,36.72,0,21.88-9.38,36.23t-28.22,21.59q-18.86,7.21-47.36,7.22Z" transform="translate(-201.51 -573)"/><line class="cls-5" x1="373.58" y1="656.45" x2="299.61" y2="656.44"/><path class="cls-2" d="M2993.3,866.89H2160.51l81-281.69c53.19,4,114.86,10.59,179.93,20.78C2636,639.58,2887.47,712.86,2993.3,866.89Z" transform="translate(-201.51 -573)"/><polyline class="cls-6" points="2041.51 6.91 1959 293.89 2815.85 293.89"/><line class="cls-7" x1="2815.85" y1="293.89" x2="2791.79" y2="293.89"/><line class="cls-7" x1="2041.51" y1="6.91" x2="2039.99" y2="12.2"/></svg>